<svg width="228" height="259" viewBox="0 0 228 259" fill="none" xmlns="http://www.w3.org/2000/svg">
<path d="M0 235.641V208.018H10.3531C12.4739 208.018 14.2534 208.414 15.6913 209.206C17.1381 209.998 18.23 211.086 18.967 212.471C19.713 213.846 20.0859 215.411 20.0859 217.163C20.0859 218.935 19.713 220.509 18.967 221.884C18.221 223.26 17.1202 224.344 15.6644 225.135C14.2082 225.916 12.4154 226.308 10.2856 226.308H3.42396V222.195H9.61142C10.8519 222.195 11.8671 221.979 12.6583 221.547C13.449 221.115 14.0331 220.522 14.4105 219.766C14.797 219.01 14.9903 218.143 14.9903 217.163C14.9903 216.184 14.797 215.32 14.4105 214.573C14.0331 213.827 13.4445 213.247 12.6448 212.834C11.8539 212.412 10.8336 212.2 9.58448 212.2H5.00131V235.641H0ZM49.0993 221.83C49.0993 224.806 48.5425 227.356 47.428 229.478C46.3224 231.59 44.8126 233.21 42.8983 234.333C40.9931 235.457 38.8318 236.02 36.4142 236.02C33.9969 236.02 31.8309 235.457 29.9166 234.333C28.0114 233.201 26.5017 231.577 25.3871 229.464C24.2816 227.343 23.729 224.798 23.729 221.83C23.729 218.853 24.2816 216.309 25.3871 214.196C26.5017 212.075 28.0114 210.451 29.9166 209.327C31.8309 208.204 33.9969 207.641 36.4142 207.641C38.8318 207.641 40.9931 208.204 42.8983 209.327C44.8126 210.451 46.3224 212.075 47.428 214.196C48.5425 216.309 49.0993 218.853 49.0993 221.83ZM44.0713 221.83C44.0713 219.734 43.7432 217.968 43.0871 216.529C42.44 215.081 41.5414 213.99 40.3912 213.253C39.2409 212.507 37.9151 212.133 36.4142 212.133C34.9132 212.133 33.5878 212.507 32.4376 213.253C31.2873 213.99 30.3841 215.081 29.728 216.529C29.0809 217.968 28.7574 219.734 28.7574 221.83C28.7574 223.925 29.0809 225.696 29.728 227.144C30.3841 228.584 31.2873 229.675 32.4376 230.421C33.5878 231.158 34.9132 231.528 36.4142 231.528C37.9151 231.528 39.2409 231.158 40.3912 230.421C41.5414 229.675 42.44 228.584 43.0871 227.144C43.7432 225.696 44.0713 223.925 44.0713 221.83ZM53.8276 235.641V208.018H58.8293V220.71H59.1662L69.9372 208.018H76.0436L65.3672 220.414L76.1381 235.641H70.1258L61.889 223.8L58.8293 227.415V235.641H53.8276ZM79.5185 235.641V208.018H89.8716C91.9923 208.018 93.7719 208.388 95.2098 209.125C96.6565 209.862 97.7485 210.896 98.4855 212.226C99.2314 213.549 99.6043 215.091 99.6043 216.853C99.6043 218.624 99.2267 220.162 98.4719 221.466C97.7263 222.762 96.6251 223.764 95.1693 224.474C93.7135 225.175 91.9251 225.526 89.8041 225.526H82.4301V221.371H89.1299C90.3703 221.371 91.3856 221.201 92.1768 220.86C92.9675 220.509 93.5516 220.001 93.929 219.334C94.3155 218.66 94.5088 217.834 94.5088 216.853C94.5088 215.873 94.3155 215.038 93.929 214.344C93.5425 213.643 92.9539 213.113 92.1631 212.753C91.3724 212.385 90.3521 212.2 89.103 212.2H84.5196V235.641H79.5185ZM93.7807 223.125L100.616 235.641H95.0345L88.3212 223.125H93.7807ZM128.877 221.83C128.877 224.806 128.321 227.356 127.205 229.478C126.101 231.59 124.59 233.21 122.677 234.333C120.771 235.457 118.61 236.02 116.192 236.02C113.775 236.02 111.609 235.457 109.694 234.333C107.789 233.201 106.279 231.577 105.165 229.464C104.06 227.343 103.507 224.798 103.507 221.83C103.507 218.853 104.06 216.309 105.165 214.196C106.279 212.075 107.789 210.451 109.694 209.327C111.609 208.204 113.775 207.641 116.192 207.641C118.61 207.641 120.771 208.204 122.677 209.327C124.59 210.451 126.101 212.075 127.205 214.196C128.321 216.309 128.877 218.853 128.877 221.83ZM123.849 221.83C123.849 219.734 123.521 217.968 122.866 216.529C122.218 215.081 121.319 213.99 120.169 213.253C119.019 212.507 117.693 212.133 116.192 212.133C114.691 212.133 113.366 212.507 112.215 213.253C111.065 213.99 110.162 215.081 109.506 216.529C108.859 217.968 108.535 219.734 108.535 221.83C108.535 223.925 108.859 225.696 109.506 227.144C110.162 228.584 111.065 229.675 112.215 230.421C113.366 231.158 114.691 231.528 116.192 231.528C117.693 231.528 119.019 231.158 120.169 230.421C121.319 229.675 122.218 228.584 122.866 227.144C123.521 225.696 123.849 223.925 123.849 221.83ZM135.816 208.018L143.001 229.76H143.284L150.457 208.018H155.956L146.223 235.641H140.05L130.329 208.018H135.816ZM174.597 215.612C174.471 214.435 173.941 213.516 173.007 212.861C172.08 212.205 170.876 211.876 169.393 211.876C168.351 211.876 167.456 212.035 166.711 212.349C165.965 212.664 165.394 213.09 164.999 213.63C164.603 214.17 164.401 214.786 164.392 215.477C164.392 216.053 164.522 216.551 164.784 216.974C165.053 217.398 165.417 217.756 165.875 218.054C166.333 218.342 166.841 218.584 167.397 218.781C167.955 218.98 168.516 219.147 169.084 219.281L171.671 219.929C172.715 220.172 173.715 220.5 174.678 220.913C175.649 221.327 176.515 221.848 177.28 222.477C178.053 223.106 178.663 223.866 179.112 224.757C179.562 225.647 179.786 226.691 179.786 227.886C179.786 229.504 179.374 230.929 178.547 232.16C177.719 233.384 176.525 234.343 174.961 235.034C173.406 235.718 171.524 236.059 169.312 236.059C167.165 236.059 165.3 235.726 163.717 235.061C162.146 234.396 160.913 233.424 160.024 232.147C159.144 230.87 158.667 229.315 158.596 227.481H163.516C163.587 228.443 163.885 229.243 164.405 229.881C164.927 230.52 165.605 230.997 166.442 231.312C167.286 231.626 168.23 231.783 169.272 231.783C170.359 231.783 171.313 231.622 172.131 231.298C172.956 230.965 173.604 230.506 174.071 229.923C174.539 229.33 174.776 228.637 174.786 227.845C174.776 227.127 174.565 226.534 174.152 226.066C173.738 225.588 173.159 225.192 172.413 224.878C171.676 224.554 170.813 224.266 169.824 224.016L166.683 223.205C164.411 222.621 162.613 221.735 161.292 220.549C159.979 219.353 159.323 217.766 159.323 215.788C159.323 214.16 159.764 212.736 160.644 211.512C161.533 210.29 162.743 209.341 164.271 208.666C165.797 207.982 167.529 207.641 169.461 207.641C171.42 207.641 173.137 207.982 174.61 208.666C176.093 209.341 177.258 210.28 178.102 211.485C178.946 212.681 179.383 214.056 179.41 215.612H174.597ZM184.245 235.641V208.018H189.248V220.71H189.585L200.355 208.018H206.461L195.784 220.414L206.557 235.641H200.544L192.308 223.8L189.248 227.415V235.641H184.245ZM209.935 235.641V208.018H227.893V212.213H214.938V219.713H226.962V223.908H214.938V231.446H228V235.641H209.935Z" fill="white"/>
<path d="M127.605 165.314C125.66 165.143 123.759 164.143 121.575 165.028C122.624 165.927 123.555 166.75 124.511 167.538C127.471 169.978 128.811 173.163 128.775 176.965C128.75 179.568 128.581 182.177 129.788 184.632C128.62 183.425 127.9 181.548 127.618 179.405C127.478 178.354 127.311 177.302 127.103 176.262C126.44 172.966 124.772 170.355 121.844 168.635C120.021 167.562 118.188 166.511 116.276 165.399C114.848 167.07 116.115 168.621 116.208 170.147C116.323 172.047 118.356 172.401 119.61 174.085C118.106 173.434 117.096 172.994 115.965 172.501C115.07 170.478 114.182 168.337 114.34 165.935C114.404 164.95 113.935 164.38 113.23 163.754C111.3 162.055 109.47 160.238 107.469 158.34C107.133 159.446 106.796 160.771 106.907 162.159C107.179 165.547 107.637 168.906 109.388 171.91C110.555 173.917 111.712 175.929 112.997 177.854C115.926 182.237 117.726 186.921 117.193 192.311C117.139 192.86 117.254 193.427 117.315 194.326C138.485 194.184 159.436 195.564 180.205 199.146C135.481 198.907 90.7677 198.887 46.0479 199.167C68.9036 195.291 91.9706 194.063 115.417 194.3C115.192 191.227 115.095 188.508 113.828 186.083C112.675 183.872 111.304 181.76 109.864 179.718C108.482 177.757 106.889 175.95 105.371 174.053C103.331 176.378 103.445 179.538 105.568 181.569C106.334 182.3 107.197 182.933 107.96 183.664C108.876 184.545 109.492 185.596 109.599 187.404C108.375 185.536 107.562 183.854 105.45 183.365C104.87 184.365 104.283 185.381 103.696 186.396C104.401 183.961 103.842 181.836 102.776 179.682C101.709 177.526 102.314 175.353 103.101 173.21C103.814 171.278 103.753 171.255 102.815 169.521C96.8898 173.809 92.9946 179.201 93.5638 187.091C93.3347 187.036 93.1056 186.979 92.8764 186.925C92.7833 184.285 92.6903 181.648 92.5936 178.841C91.3978 178.772 90.1734 178.7 88.8881 178.628C88.9526 178.452 88.9848 178.238 89.0385 178.236C92.1389 177.969 94.2655 176.505 95.5866 173.559C96.2382 172.109 97.5593 170.957 98.6011 169.69C100.721 167.115 101.619 164.315 101.326 160.85C100.946 156.368 102.088 152.023 103.936 147.905C105.98 143.352 108.88 139.396 112.256 135.766C117.214 130.436 123.014 126.106 128.782 121.739C133.163 118.42 137.642 115.217 141.398 111.149C146.421 105.703 150.678 99.7997 152.647 92.4745C153.926 87.7266 153.928 82.9535 153.502 78.04C153.919 79.2387 154.465 80.4122 154.731 81.6432C156.461 89.728 155.204 97.406 151.433 104.706C148.373 110.631 143.958 115.472 139.214 120.04C138.671 120.566 137.908 120.861 137.507 121.102C138.728 124.943 140.919 126.224 144.094 125.962C145.434 125.85 146.775 125.724 148.093 125.476C149.798 125.155 151.241 125.638 152.604 126.635C150.499 126.156 148.484 126.394 146.382 126.793C142.368 127.553 138.456 127.355 135.598 123.55C133.683 125.22 131.961 126.718 130.286 128.179C130.866 131.667 132.916 133.19 136.061 132.639C137.271 132.426 138.501 132.351 139.751 132.47C138.541 132.97 137.328 133.467 135.82 134.09C136.666 134.814 137.284 135.353 137.915 135.882C139.133 136.901 139.973 138.11 140.292 139.734C140.748 142.03 141.961 143.797 144.194 144.781C145.157 145.205 146.074 145.768 146.951 146.361C149.125 147.829 150.618 149.727 150.478 152.58C149.396 149.276 147.363 146.976 143.998 145.917C141.401 145.101 139.745 143.248 139.197 140.586C138.688 138.121 137.192 136.697 134.972 135.871C132.219 134.853 129.773 133.374 127.823 131.008C125.004 132.39 124.486 134.954 124.156 137.534C123.44 143.121 125.931 147.477 129.638 151.304C131.113 152.825 132.773 154.172 134.156 155.771C137.868 160.064 138.807 164.967 137.002 170.381C136.851 170.83 136.738 171.295 136.465 172.249C136.465 170.935 136.372 170.114 136.48 169.322C137.177 164.302 135.449 160.215 131.767 156.896C130.912 156.123 129.949 155.464 129.01 154.788C126.114 152.707 123.384 150.453 121.314 147.268C119.731 148.323 118.74 149.737 118.582 151.317C118.442 152.728 119.094 154.219 119.495 156.135C117.146 152.815 116.86 149.871 119.044 146.908C119.925 145.713 120.086 144.532 119.62 143.117C119.234 141.941 119.108 140.677 118.772 138.97C115.453 142.185 112.592 145.317 111.164 149.356C109.947 152.8 111.085 156.108 113.344 158.836C114.554 160.299 116.122 161.54 117.741 162.538C118.714 163.139 120.082 163.154 121.289 163.298C123.531 163.567 125.914 163.336 127.573 165.37L127.614 165.323L127.605 165.314Z" fill="#CF9B36"/>
<path d="M109.313 104.155C100.42 106.463 93.1305 111.157 87.5061 118.777C88.129 116.617 88.9954 115.181 90.8177 113.093C94.627 108.738 99.224 105.433 104.43 103C107.831 101.413 111.307 99.987 114.74 98.468C124.145 94.3069 131.76 87.9319 137.482 79.3865C141.281 73.7135 143.461 67.4645 142.655 60.4741C142.436 58.5771 141.961 56.7125 141.52 54.3979C142.165 55.0171 142.666 55.3554 142.984 55.8198C148.705 64.1601 148.665 72.8136 144.181 81.6074C141.087 87.6692 136.293 92.3199 131.174 96.6142C127.267 99.8899 123.175 102.946 119.033 106.2C125.302 105.109 133.791 101.387 140.167 93.6805C139.952 94.2205 139.815 94.8108 139.508 95.2896C136.819 99.4543 133.092 102.51 128.796 104.785C124.46 107.082 120.05 109.299 115.489 111.088C110.118 113.198 105.282 116.038 101.007 119.886C96.6999 123.766 92.5004 127.736 89.2425 132.61C85.136 138.751 82.8769 145.393 83.6646 152.865C83.8615 154.748 84.3555 156.599 84.7959 158.905C81.674 155.424 80.2025 151.66 79.6798 147.592C78.817 140.835 80.2706 134.533 83.8794 128.723C87.4918 122.902 92.1746 118.072 97.3873 113.73C101.304 110.469 105.332 107.337 109.309 104.148L109.313 104.155Z" fill="#CF9B36"/>
<path d="M148.605 80.02C149.919 88.7851 147.38 96.5602 141.993 103.486C137.554 109.191 131.944 113.608 126.11 117.744C119.219 122.632 113.058 128.28 107.974 135.066C104.884 139.186 102.246 143.549 101.319 148.748C101.225 149.269 100.939 149.76 100.631 150.22C100.885 143.79 102.765 137.909 106.302 132.379C106.044 132.531 105.726 132.631 105.532 132.843C101.974 136.782 98.4401 140.71 95.9662 145.514C92.2464 152.74 91.7917 160.072 94.663 167.642C94.8277 168.074 94.9924 168.506 95.2251 169.118C93.1629 167.782 90.9361 164.863 89.5864 161.964C85.6303 153.484 86.8726 145.397 91.4659 137.61C94.9673 131.671 99.8328 126.973 105.532 123.251C110.606 119.936 115.911 116.966 121.178 113.961C126.544 110.898 131.842 107.748 136.444 103.572C142.297 98.2593 146.687 92.0391 148.061 84.0264C148.291 82.6981 148.43 81.3555 148.613 80.02H148.605Z" fill="#38981F"/>
<path d="M130.295 42.2812C130.876 42.724 131.513 43.1092 132.021 43.6203C139.168 50.7835 141.107 61.2908 137.033 70.6966C133.987 77.7374 129.037 83.2412 122.82 87.4852C117.182 91.3368 111.264 94.7852 105.41 98.3092C99.614 101.801 94.0468 105.566 89.3318 110.494C84.3589 115.688 80.7608 121.649 79.3395 128.791C79.0388 130.295 78.9887 131.854 78.4659 133.466C78.3084 132.523 78.0113 131.577 78.0184 130.634C78.065 123.69 80.0054 117.294 83.7324 111.459C87.7994 105.095 93.3022 100.131 99.256 95.6455C105.024 91.2972 110.949 87.1576 116.666 82.7409C121.578 78.9469 125.811 74.4582 128.882 68.976C131.226 64.7932 132.741 60.3729 132.931 55.5134C133.092 51.4639 132.438 47.6231 130.597 44.0019C130.354 43.5231 130.175 43.012 129.967 42.5188C130.075 42.4396 130.188 42.3604 130.295 42.2812Z" fill="#38981F"/>
<path d="M158.16 119.712C153.796 121.864 149.5 122.584 144.266 122.023C146.382 121.648 148.345 121.303 150.31 120.957C147.356 121.008 144.654 121.504 141.298 121.076C146.25 119.576 151.498 118.924 158.16 119.709V119.712Z" fill="white"/>
<path d="M145.637 134.529C147.527 135.825 149.085 136.894 150.642 137.962C150.757 137.83 150.872 137.701 150.987 137.566C149.443 136.123 147.9 134.681 146.214 133.103C151.1 133.071 154.827 137.131 154.989 142.524C150.742 141.429 146.811 140.097 145.637 134.529Z" fill="white"/>
<path d="M122.82 179.214C122.804 181.501 122.788 183.38 122.775 185.261C122.602 185.28 122.431 185.301 122.263 185.32C121.965 183.24 121.668 181.154 121.342 178.88C118.55 182.868 119.735 188.224 124.017 191.407C125.534 187.303 126.678 183.325 122.82 179.214Z" fill="white"/>
<path d="M132.008 140.317C133.011 142.058 133.766 143.369 134.518 144.676C134.663 144.629 134.81 144.578 134.957 144.532C134.55 143.081 134.141 141.63 133.731 140.166C137.948 142.001 139.097 146.613 136.54 151.601C133.763 148.517 130.537 145.692 132.008 140.313V140.317Z" fill="white"/>
<path d="M97.5022 70.6568C98.9629 72.2478 99.235 73.8857 98.0679 75.8511C96.4998 78.4896 96.2528 81.2397 98.0608 84.4073C101.394 81.7436 104.877 79.7854 106.607 75.8151C111.211 65.2466 105.769 53.8862 96.5786 49.3687C100.134 53.0043 103.109 56.9855 104.473 62.0609C91.2942 58.9113 83.4394 50.5422 79.8091 37.5548C80.5502 37.634 81.191 37.6376 81.7996 37.7815C84.5134 38.4295 87.2558 39.0018 89.9195 39.8225C92.4864 40.6144 95.057 41.4928 97.47 42.659C106.327 46.9462 110.62 54.2714 110.795 64.0119C110.849 67.0572 110.269 70.1169 109.961 73.3529C110.355 73.0254 110.828 72.7806 111.093 72.3882C117.193 63.3604 118.901 53.5983 115.682 43.1162C114.862 40.4489 113.71 37.8751 112.596 35.3122C110.559 30.6327 108.436 25.9928 106.198 21.0001C106.295 22.1808 106.198 23.1851 106.478 24.067C107.648 27.7458 108.866 31.4102 110.19 35.035C111.88 39.6533 113.52 44.2717 114.154 49.4767C109.532 44.5272 104.612 40.2041 102.092 33.9228C100.044 28.8185 99.0704 23.6963 99.6468 18.1061C100.248 12.2891 102.081 7.00485 104.62 1.8646C104.859 1.38225 105.203 0.953898 105.823 0C107.677 10.1941 113.577 17.9945 117.54 26.7955C118.801 21.8029 120.19 16.9902 124.096 13.4338C127.184 10.6189 130.727 8.54188 134.916 6.5369C134.467 9.72256 134.121 12.5267 133.655 15.3092C133.433 16.6338 132.992 17.9189 132.638 19.2219C131.241 24.3406 127.439 27.3751 123.182 30.3915C122.331 25.6437 124.622 22.0008 126.727 17.7893C125.274 18.2464 124.786 19.0564 124.324 19.7727C121.271 24.4882 119.277 29.5672 119.484 35.2942C119.613 38.865 119.678 42.4646 120.215 45.9815C120.899 50.4738 120.269 54.8401 119.689 59.2388C119.538 60.3691 119.295 61.485 119.073 62.7053C121.103 61.215 123.229 56.5751 124.676 50.6466C125.688 46.489 125.62 43.9369 124.232 37.1156C126.87 40.3805 128.095 43.9333 128.568 47.5581C129.169 52.1584 128.85 56.7875 127.358 61.3194C125.613 66.6109 122.463 70.9412 118.797 74.9404C114.007 80.1634 108.246 84.2382 102.547 88.3633C97.1621 92.2617 91.6666 96.0161 86.9157 100.724C82.9023 104.702 79.6551 109.205 77.149 114.299C74.9257 118.816 73.9197 123.571 73.8338 128.567C73.823 129.226 73.8338 129.885 73.6118 130.511C71.052 118.64 75.1226 108.579 82.2937 99.4033C81.3306 97.7871 79.7697 97.6035 78.2517 97.4128C77.396 97.3048 76.5189 97.3732 75.6525 97.3624C72.9495 97.3264 70.898 96.1097 69.4302 93.7627C71.8611 95.6417 74.4388 96.8476 77.6968 95.8937C77.1347 94.2559 76.5941 92.6864 75.8566 90.5339C77.1705 92.5317 77.8829 94.2163 79.1145 95.3142C80.364 96.4229 82.1254 96.9484 83.6828 97.7403C86.6687 94.9254 89.6581 92.1141 92.7908 89.1624C90.1844 85.1885 86.3393 83.9754 81.8891 84.2022C80.364 84.2814 78.8603 84.7169 77.3388 84.9473C74.6859 85.3504 72.3015 84.6701 70.1247 82.9927C74.557 84.6485 78.6276 82.6435 83.1171 81.9128C81.814 79.2131 80.7435 76.5242 79.2685 74.0764C77.6646 71.4091 74.9078 70.4084 71.9327 70.0233C71.2167 69.9297 70.4935 69.8937 69.8276 69.307C71.8038 69.5301 73.8159 69.5949 75.7492 70.0125C78.5381 70.6172 80.6755 72.3126 81.7352 74.9943C83.2138 78.7415 85.702 81.2289 89.4827 82.6543C91.237 83.3167 92.7406 84.6521 94.3696 85.6636C94.8279 85.948 95.3327 86.164 95.7408 86.3727C96.8113 85.552 96.1525 84.8537 95.8769 84.2022C94.7885 81.6284 94.7455 79.0727 96.2778 76.7042C97.5094 74.8 97.8459 72.8022 97.5452 70.6244L97.4951 70.6676L97.5022 70.6568Z" fill="white"/>
<path d="M98.4183 32.0365C96.4027 30.4023 94.8596 29.1533 93.3309 27.9114C93.6352 30.028 93.6746 30.0712 98.8085 34.1171C91.616 34.0955 86.8758 26.5111 88.0466 19.2219C92.6149 22.3464 98.0281 24.6033 98.4219 32.0401L98.4183 32.0365Z" fill="#CF9B36"/>
<path d="M60.0569 104.573C63.4688 99.2993 67.8294 97.4491 72.0003 99.6089C70.4859 100.246 69.1326 100.818 67.7757 101.387C67.8008 101.495 67.8294 101.607 67.8545 101.715C69.7197 101.513 71.585 101.308 73.7152 101.078C70.9692 105.541 65.2803 106.466 60.0569 104.569V104.573Z" fill="#CF9B36"/>
<path d="M85.8487 73.2452C83.8223 68.9257 85.1255 65.5924 86.5039 62.198C90.2129 64.7033 90.9218 69.4296 87.9288 72.7377C87.8142 71.2762 87.7175 70.0164 87.5779 68.2202C86.955 70.0344 86.5074 71.3338 85.8487 73.2452Z" fill="#CF9B36"/>
<path d="M36.7144 245.606V243.637H48.3808V245.606H43.6774V258.794H41.4104V245.606H36.7144ZM50.4509 258.794H48.0367L53.4614 243.637H56.0891L61.5138 258.794H59.0996L54.8377 246.39H54.7199L50.4509 258.794ZM50.8558 252.858H58.6873V254.783H50.8558V252.858ZM63.6907 258.794V243.637H69.0638C70.2317 243.637 71.2009 243.84 71.9712 244.244C72.7466 244.649 73.3257 245.208 73.7084 245.924C74.0911 246.635 74.2825 247.457 74.2825 248.389C74.2825 249.315 74.0886 250.132 73.701 250.839C73.3183 251.539 72.7393 252.083 71.9639 252.474C71.1936 252.864 70.2243 253.059 69.0564 253.059H64.9862V251.091H68.8505C69.5865 251.091 70.1851 250.984 70.6464 250.772C71.1126 250.56 71.4536 250.251 71.6696 249.846C71.8853 249.442 71.9933 248.955 71.9933 248.389C71.9933 247.817 71.8829 247.32 71.6622 246.902C71.4463 246.481 71.1052 246.161 70.639 245.939C70.1778 245.712 69.5718 245.598 68.8209 245.598H65.965V258.794H63.6907ZM71.1322 251.956L74.8567 258.794H72.2658L68.6149 251.956H71.1322ZM79.3245 243.637V258.794H77.05V243.637H79.3245ZM82.6367 243.637H85.3969L90.196 255.419H90.3725L95.1717 243.637H97.932V258.794H95.7679V247.826H95.628L91.1822 258.771H89.3863L84.9405 247.819H84.8007V258.794H82.6367V243.637ZM106.724 258.794V243.637H108.998V256.825H115.829V258.794H106.724ZM115.717 245.606V243.637H127.384V245.606H122.679V258.794H120.413V245.606H115.717ZM134.842 258.794H129.962V243.637H134.997C136.472 243.637 137.742 243.941 138.801 244.547C139.862 245.149 140.674 246.015 141.237 247.146C141.807 248.27 142.091 249.62 142.091 251.193C142.091 252.773 141.805 254.129 141.23 255.264C140.661 256.399 139.837 257.272 138.758 257.884C137.678 258.491 136.372 258.794 134.842 258.794ZM132.236 256.795H134.716C135.865 256.795 136.819 256.579 137.58 256.145C138.339 255.706 138.908 255.071 139.287 254.243C139.664 253.409 139.854 252.392 139.854 251.193C139.854 250.005 139.664 248.995 139.287 248.167C138.914 247.337 138.356 246.708 137.616 246.28C136.875 245.85 135.956 245.636 134.855 245.636H132.236V256.795ZM145.242 258.934C144.84 258.934 144.494 258.792 144.203 258.506C143.915 258.214 143.77 257.863 143.77 257.454C143.77 257.049 143.915 256.704 144.203 256.418C144.494 256.126 144.84 255.982 145.242 255.982C145.645 255.982 145.99 256.126 146.28 256.418C146.57 256.704 146.713 257.049 146.713 257.454C146.713 257.725 146.645 257.975 146.508 258.201C146.376 258.424 146.199 258.6 145.978 258.735C145.758 258.868 145.511 258.934 145.242 258.934ZM167.601 248.567H165.306C165.217 248.073 165.051 247.639 164.812 247.264C164.571 246.888 164.277 246.57 163.928 246.309C163.58 246.047 163.19 245.85 162.758 245.718C162.33 245.583 161.878 245.517 161.396 245.517C160.527 245.517 159.751 245.737 159.063 246.176C158.381 246.616 157.842 247.258 157.444 248.107C157.05 248.955 156.854 249.992 156.854 251.216C156.854 252.449 157.05 253.491 157.444 254.338C157.842 255.186 158.383 255.829 159.07 256.263C159.758 256.696 160.531 256.914 161.388 256.914C161.865 256.914 162.317 256.85 162.743 256.721C163.174 256.588 163.564 256.393 163.913 256.138C164.262 255.88 164.556 255.567 164.797 255.198C165.042 254.823 165.211 254.393 165.306 253.91L167.601 253.917C167.478 254.662 167.241 255.347 166.887 255.975C166.538 256.596 166.089 257.134 165.541 257.587C164.995 258.036 164.373 258.384 163.67 258.631C162.969 258.877 162.204 259 161.375 259C160.069 259 158.907 258.689 157.885 258.068C156.864 257.441 156.059 256.547 155.471 255.382C154.887 254.218 154.595 252.83 154.595 251.216C154.595 249.598 154.889 248.209 155.479 247.049C156.067 245.884 156.871 244.992 157.893 244.371C158.914 243.743 160.073 243.431 161.375 243.431C162.174 243.431 162.92 243.546 163.612 243.778C164.309 244.005 164.934 244.34 165.488 244.784C166.042 245.223 166.502 245.761 166.866 246.398C167.228 247.029 167.474 247.752 167.601 248.567ZM183.417 251.216C183.417 252.833 183.123 254.226 182.534 255.389C181.946 256.549 181.137 257.441 180.112 258.068C179.091 258.689 177.93 259 176.63 259C175.326 259 174.16 258.689 173.135 258.068C172.114 257.441 171.309 256.547 170.721 255.382C170.131 254.218 169.837 252.83 169.837 251.216C169.837 249.598 170.131 248.209 170.721 247.049C171.309 245.884 172.114 244.992 173.135 244.371C174.16 243.743 175.326 243.431 176.63 243.431C177.93 243.431 179.091 243.743 180.112 244.371C181.137 244.992 181.946 245.884 182.534 247.049C183.123 248.209 183.417 249.598 183.417 251.216ZM181.166 251.216C181.166 249.982 180.966 248.944 180.568 248.099C180.176 247.252 179.636 246.61 178.95 246.176C178.268 245.737 177.495 245.517 176.63 245.517C175.762 245.517 174.987 245.737 174.305 246.176C173.623 246.61 173.082 247.252 172.686 248.099C172.293 248.944 172.097 249.982 172.097 251.216C172.097 252.449 172.293 253.491 172.686 254.338C173.082 255.183 173.623 255.823 174.305 256.263C174.987 256.696 175.762 256.914 176.63 256.914C177.495 256.914 178.268 256.696 178.95 256.263C179.636 255.823 180.176 255.183 180.568 254.338C180.966 253.491 181.166 252.449 181.166 251.216ZM186.576 258.934C186.172 258.934 185.826 258.792 185.537 258.506C185.247 258.214 185.102 257.863 185.102 257.454C185.102 257.049 185.247 256.704 185.537 256.418C185.826 256.126 186.172 255.982 186.576 255.982C186.977 255.982 187.324 256.126 187.612 256.418C187.902 256.704 188.047 257.049 188.047 257.454C188.047 257.725 187.977 257.975 187.842 258.201C187.708 258.424 187.531 258.6 187.31 258.735C187.09 258.868 186.845 258.934 186.576 258.934Z" fill="#CF9B36"/>
</svg>
