<svg width="121" height="125" viewBox="0 0 121 125" fill="none" xmlns="http://www.w3.org/2000/svg">
<path d="M0 124.779V110.199H5.49438C6.6199 110.199 7.56429 110.408 8.32738 110.826C9.09521 111.244 9.67469 111.818 10.0658 112.549C10.4617 113.275 10.6596 114.101 10.6596 115.026C10.6596 115.961 10.4617 116.792 10.0658 117.518C9.66994 118.244 9.0857 118.816 8.31312 119.234C7.54034 119.646 6.58892 119.853 5.45864 119.853H1.81714V117.682H5.10077C5.75913 117.682 6.29794 117.568 6.71778 117.34C7.13742 117.112 7.44741 116.799 7.64773 116.4C7.8528 116.001 7.95543 115.543 7.95543 115.026C7.95543 114.509 7.8528 114.053 7.64773 113.659C7.44741 113.265 7.13495 112.959 6.71055 112.741C6.29091 112.518 5.74943 112.406 5.08651 112.406H2.65415V124.779H0ZM26.0571 117.489C26.0571 119.06 25.7616 120.406 25.1701 121.526C24.5834 122.641 23.7821 123.496 22.7662 124.089C21.7551 124.682 20.6081 124.979 19.3251 124.979C18.0422 124.979 16.8927 124.682 15.8768 124.089C14.8657 123.491 14.0645 122.634 13.473 121.519C12.8863 120.399 12.593 119.056 12.593 117.489C12.593 115.918 12.8863 114.575 13.473 113.46C14.0645 112.34 14.8657 111.483 15.8768 110.89C16.8927 110.297 18.0422 110 19.3251 110C20.6081 110 21.7551 110.297 22.7662 110.89C23.7821 111.483 24.5834 112.34 25.1701 113.46C25.7616 114.575 26.0571 115.918 26.0571 117.489ZM23.3887 117.489C23.3887 116.383 23.2146 115.451 22.8664 114.691C22.523 113.927 22.0461 113.351 21.4357 112.962C20.8252 112.568 20.1216 112.371 19.3251 112.371C18.5285 112.371 17.8251 112.568 17.2147 112.962C16.6042 113.351 16.1249 113.927 15.7767 114.691C15.4333 115.451 15.2616 116.383 15.2616 117.489C15.2616 118.595 15.4333 119.53 15.7767 120.294C16.1249 121.054 16.6042 121.63 17.2147 122.024C17.8251 122.413 18.5285 122.608 19.3251 122.608C20.1216 122.608 20.8252 122.413 21.4357 122.024C22.0461 121.63 22.523 121.054 22.8664 120.294C23.2146 119.53 23.3887 118.595 23.3887 117.489ZM28.5664 124.779V110.199H31.2208V116.898H31.3996L37.1158 110.199H40.3565L34.6905 116.742L40.4066 124.779H37.2159L32.8446 118.529L31.2208 120.437V124.779H28.5664ZM42.2006 124.779V110.199H47.695C48.8205 110.199 49.7649 110.394 50.528 110.783C51.2958 111.172 51.8753 111.718 52.2664 112.42C52.6623 113.118 52.8602 113.932 52.8602 114.862C52.8602 115.797 52.6598 116.609 52.2592 117.297C51.8635 117.981 51.2791 118.51 50.5065 118.885C49.7339 119.255 48.7848 119.44 47.6592 119.44H43.7458V117.247H47.3014C47.9597 117.247 48.4985 117.157 48.9184 116.977C49.338 116.792 49.648 116.524 49.8483 116.172C50.0534 115.816 50.156 115.38 50.156 114.862C50.156 114.345 50.0534 113.904 49.8483 113.538C49.6432 113.168 49.3308 112.888 48.9111 112.698C48.4915 112.504 47.95 112.406 47.2871 112.406H44.8547V124.779H42.2006ZM49.7696 118.173L53.3969 124.779H50.435L46.8722 118.173H49.7696ZM68.3955 117.489C68.3955 119.06 68.0997 120.406 67.5083 121.526C66.9218 122.641 66.1205 123.496 65.1046 124.089C64.0935 124.682 62.9463 124.979 61.6634 124.979C60.3804 124.979 59.2311 124.682 58.215 124.089C57.2039 123.491 56.4026 122.634 55.8114 121.519C55.2247 120.399 54.9314 119.056 54.9314 117.489C54.9314 115.918 55.2247 114.575 55.8114 113.46C56.4026 112.34 57.2039 111.483 58.215 110.89C59.2311 110.297 60.3804 110 61.6634 110C62.9463 110 64.0935 110.297 65.1046 110.89C66.1205 111.483 66.9218 112.34 67.5083 113.46C68.0997 114.575 68.3955 115.918 68.3955 117.489ZM65.7271 117.489C65.7271 116.383 65.553 115.451 65.2048 114.691C64.8613 113.927 64.3843 113.351 63.7738 112.962C63.1634 112.568 62.46 112.371 61.6634 112.371C60.8669 112.371 60.1635 112.568 59.5528 112.962C58.9424 113.351 58.4631 113.927 58.1149 114.691C57.7716 115.451 57.5998 116.383 57.5998 117.489C57.5998 118.595 57.7716 119.53 58.1149 120.294C58.4631 121.054 58.9424 121.63 59.5528 122.024C60.1635 122.413 60.8669 122.608 61.6634 122.608C62.46 122.608 63.1634 122.413 63.7738 122.024C64.3843 121.63 64.8613 121.054 65.2048 120.294C65.553 119.53 65.7271 118.595 65.7271 117.489ZM72.078 110.199L75.8913 121.675H76.0415L79.8476 110.199H82.7665L77.6011 124.779H74.3245L69.1663 110.199H72.078ZM92.6588 114.207C92.5921 113.586 92.3106 113.101 91.8146 112.755C91.3235 112.409 90.6843 112.235 89.8973 112.235C89.344 112.235 88.8694 112.319 88.4735 112.485C88.0778 112.651 87.7749 112.876 87.5651 113.161C87.3552 113.446 87.2479 113.771 87.2431 114.136C87.2431 114.44 87.3123 114.703 87.4507 114.926C87.5936 115.15 87.7869 115.339 88.0301 115.496C88.2732 115.648 88.5427 115.776 88.8385 115.88C89.1342 115.985 89.4322 116.073 89.7327 116.144L91.1064 116.486C91.6597 116.614 92.1914 116.787 92.7018 117.005C93.2168 117.224 93.6771 117.499 94.0825 117.831C94.4927 118.163 94.8169 118.564 95.0554 119.034C95.294 119.504 95.4131 120.055 95.4131 120.686C95.4131 121.54 95.1938 122.292 94.755 122.942C94.3161 123.588 93.6819 124.094 92.8519 124.459C92.0269 124.82 91.0277 125 89.8543 125C88.7145 125 87.7249 124.824 86.8854 124.473C86.0507 124.122 85.3973 123.609 84.9252 122.935C84.4578 122.261 84.205 121.44 84.1668 120.472H86.778C86.8162 120.98 86.9736 121.402 87.2503 121.739C87.5269 122.076 87.887 122.328 88.3306 122.494C88.779 122.66 89.2796 122.743 89.8328 122.743C90.41 122.743 90.9156 122.658 91.3497 122.487C91.7883 122.311 92.1318 122.069 92.3798 121.761C92.6278 121.448 92.7542 121.082 92.759 120.664C92.7542 120.285 92.6421 119.972 92.4228 119.725C92.2034 119.473 91.8957 119.264 91.4998 119.098C91.1087 118.927 90.6508 118.775 90.1263 118.643L88.4593 118.215C87.2526 117.907 86.2987 117.439 85.5976 116.813C84.9014 116.182 84.5532 115.344 84.5532 114.3C84.5532 113.441 84.7868 112.689 85.2543 112.043C85.7264 111.398 86.3679 110.897 87.1787 110.541C87.9895 110.18 88.9076 110 89.933 110C90.9728 110 91.8837 110.18 92.666 110.541C93.4529 110.897 94.0705 111.393 94.5189 112.029C94.9672 112.66 95.1985 113.386 95.2128 114.207H92.6588ZM97.7793 124.779V110.199H100.434V116.898H100.613L106.329 110.199H109.569L103.903 116.742L109.62 124.779H106.429L102.058 118.529L100.434 120.437V124.779H97.7793ZM111.413 124.779V110.199H120.943V112.413H114.068V116.372H120.449V118.586H114.068V122.565H121V124.779H111.413Z" fill="white"/>
<path d="M67.7197 87.2575C66.688 87.1682 65.6791 86.64 64.5201 87.1074C65.0768 87.5824 65.5708 88.0156 66.0781 88.4317C67.6494 89.7199 68.36 91.4014 68.341 93.4078C68.3277 94.7815 68.2384 96.159 68.8787 97.4548C68.2593 96.8183 67.8774 95.8265 67.7273 94.696C67.6532 94.1412 67.5639 93.5864 67.4537 93.0373C67.1022 91.2969 66.2168 89.9194 64.6626 89.0112C63.6955 88.445 62.7227 87.8902 61.7081 87.3031C60.95 88.1847 61.6226 89.0036 61.672 89.8092C61.7328 90.8124 62.812 90.9986 63.477 91.8878C62.679 91.5439 62.1432 91.3121 61.5428 91.0518C61.0678 89.984 60.5966 88.8535 60.6802 87.5862C60.7144 87.0656 60.4655 86.7654 60.0912 86.4348C59.0671 85.538 58.0962 84.5785 57.0341 83.5772C56.8555 84.1605 56.6769 84.8597 56.7358 85.5931C56.8802 87.381 57.1234 89.1537 58.0525 90.7402C58.6719 91.7985 59.2856 92.8606 59.9677 93.8771C61.5219 96.1913 62.4776 98.6632 62.1945 101.508C62.166 101.798 62.2268 102.096 62.2591 102.571C73.4938 102.497 84.6126 103.225 95.6345 105.116C71.8997 104.99 48.1706 104.979 24.4377 105.127C36.5673 103.081 48.809 102.433 61.2521 102.558C61.1324 100.936 61.0811 99.5011 60.4085 98.2205C59.7967 97.0539 59.069 95.9386 58.3052 94.8613C57.5718 93.8258 56.7263 92.872 55.9207 91.8707C54.8377 93.0981 54.8985 94.7663 56.0252 95.8379C56.4318 96.2236 56.8897 96.558 57.2944 96.9437C57.7808 97.4092 58.1076 97.964 58.1646 98.9178C57.5148 97.9317 57.0835 97.0444 55.9625 96.786C55.6547 97.3142 55.3431 97.85 55.0315 98.3858C55.4058 97.1014 55.1094 95.9785 54.5432 94.8423C53.977 93.7042 54.2981 92.5566 54.7161 91.4261C55.0942 90.4058 55.0619 90.3944 54.5641 89.4786C51.4196 91.7415 49.3524 94.5877 49.6545 98.7525C49.5329 98.724 49.4113 98.6936 49.2897 98.6651C49.2403 97.2724 49.1909 95.8797 49.1396 94.3977C48.505 94.3616 47.8552 94.3236 47.1731 94.2856C47.2073 94.1925 47.2244 94.0804 47.2529 94.0785C48.8983 93.9379 50.0269 93.1646 50.728 91.6104C51.0738 90.8447 51.7749 90.2367 52.3278 89.5679C53.4526 88.2094 53.9295 86.7312 53.7737 84.9015C53.5723 82.536 54.1784 80.2427 55.1588 78.0691C56.2437 75.6656 57.7827 73.5775 59.5744 71.6623C62.2059 68.8484 65.2839 66.5627 68.3448 64.258C70.6704 62.5062 73.0473 60.8152 75.0404 58.6682C77.7061 55.7935 79.9652 52.6775 81.0102 48.811C81.6885 46.3049 81.6904 43.7855 81.4643 41.192C81.6847 41.8247 81.9754 42.4441 82.116 43.0939C83.0337 47.3613 82.3668 51.414 80.3661 55.2672C78.7416 58.3946 76.3989 60.9501 73.8814 63.3612C73.5926 63.6386 73.1879 63.7944 72.9751 63.9217C73.623 65.949 74.7858 66.6254 76.4711 66.4867C77.1817 66.4278 77.8942 66.3613 78.5934 66.2302C79.4978 66.0611 80.2635 66.3157 80.9874 66.842C79.8702 66.5893 78.8005 66.7147 77.6852 66.9256C75.5553 67.3265 73.4786 67.222 71.9624 65.2137C70.9459 66.0953 70.032 66.8857 69.1428 67.6571C69.4506 69.4982 70.5393 70.3019 72.2075 70.0112C72.8497 69.8991 73.5033 69.8592 74.1664 69.9219C73.5242 70.186 72.8801 70.4482 72.0802 70.7769C72.5286 71.1588 72.8573 71.4438 73.1917 71.7231C73.8377 72.2608 74.2842 72.8992 74.4533 73.7561C74.6946 74.9683 75.3387 75.9012 76.5243 76.4199C77.0354 76.6441 77.5218 76.9405 77.9873 77.254C79.1406 78.0292 79.9329 79.0305 79.8588 80.5372C79.285 78.793 78.2058 77.5789 76.4198 77.0203C75.0423 76.589 74.1626 75.6105 73.8719 74.2064C73.6021 72.9049 72.8079 72.1525 71.6299 71.7174C70.1688 71.1797 68.8711 70.3988 67.8356 69.1505C66.3403 69.8801 66.0648 71.2329 65.89 72.5952C65.51 75.544 66.8324 77.843 68.7989 79.8627C69.5817 80.6664 70.4633 81.377 71.1967 82.2206C73.167 84.4873 73.6648 87.0751 72.7072 89.9327C72.6274 90.1702 72.5666 90.4153 72.4222 90.9188C72.4222 90.2253 72.3728 89.7921 72.4298 89.3741C72.8003 86.7236 71.8826 84.5671 69.9294 82.8153C69.4753 82.4068 68.9642 82.0591 68.4664 81.7019C66.9293 80.6037 65.4796 79.4143 64.3814 77.7328C63.5416 78.2895 63.0153 79.0362 62.9317 79.8703C62.8576 80.6151 63.2034 81.4017 63.4162 82.4125C62.1698 80.6607 62.0178 79.1065 63.1768 77.5428C63.6442 76.912 63.7297 76.2888 63.4827 75.5421C63.2775 74.9208 63.211 74.2539 63.0324 73.3533C61.2711 75.05 59.753 76.703 58.9949 78.8348C58.3489 80.6531 58.9531 82.3992 60.152 83.8394C60.7942 84.6108 61.6264 85.2663 62.4852 85.7926C63.002 86.1099 63.7278 86.1175 64.3681 86.1935C65.5575 86.336 66.8229 86.2144 67.7026 87.2879L67.7254 87.2632L67.7197 87.2575Z" fill="#CF9B36"/>
<path d="M58.0125 54.9765C53.2929 56.1944 49.4245 58.672 46.4396 62.6943C46.7702 61.5543 47.23 60.7962 48.1971 59.6942C50.2187 57.3952 52.6583 55.651 55.4209 54.3666C57.2259 53.5287 59.0708 52.7763 60.8929 51.9745C65.8842 49.7781 69.9255 46.4132 72.9617 41.9026C74.9776 38.9082 76.1347 35.6098 75.7072 31.92C75.5913 30.9187 75.3386 29.9345 75.1049 28.7128C75.4469 29.0396 75.7129 29.2182 75.882 29.4633C78.9182 33.8656 78.8973 38.4332 76.5166 43.0749C74.875 46.2745 72.3309 48.7293 69.6139 50.996C67.541 52.725 65.3693 54.3381 63.171 56.0557C66.4979 55.48 71.0028 53.5154 74.3867 49.4475C74.2727 49.7325 74.2005 50.0441 74.0371 50.2968C72.6102 52.4951 70.6323 54.1082 68.3523 55.309C66.0514 56.5212 63.7106 57.6916 61.29 58.6359C58.44 59.7493 55.8731 61.2484 53.6045 63.2795C51.3188 65.3277 49.0901 67.4234 47.3611 69.996C45.1818 73.2374 43.9829 76.7429 44.4009 80.6873C44.5054 81.681 44.7676 82.6576 45.0013 83.8755C43.3445 82.0382 42.5636 80.0508 42.2862 77.9038C41.8283 74.3375 42.5997 71.0106 44.5149 67.944C46.432 64.8717 48.9172 62.3219 51.6836 60.0305C53.7622 58.3091 55.8997 56.6561 58.0106 54.9727L58.0125 54.9765Z" fill="#CF9B36"/>
<path d="M78.8651 42.237C79.5624 46.8635 78.2153 50.9675 75.3558 54.6231C72.9998 57.6346 70.0225 59.9659 66.9274 62.149C63.2699 64.7292 60 67.7103 57.302 71.2918C55.6623 73.4673 54.262 75.7701 53.7699 78.5137C53.7205 78.7892 53.5685 79.0476 53.4051 79.2908C53.54 75.8974 54.5375 72.7928 56.4147 69.8744C56.2779 69.9542 56.1088 70.0074 56.0062 70.1195C54.1176 72.1981 52.2423 74.271 50.9294 76.8075C48.9553 80.6208 48.714 84.4911 50.2378 88.4868C50.3252 88.7148 50.4126 88.9428 50.5361 89.2658C49.4417 88.5609 48.2599 87.02 47.5436 85.4905C45.4441 81.0141 46.1034 76.7448 48.5411 72.6351C50.3993 69.5001 52.9814 67.0206 56.0062 65.056C58.6985 63.3061 61.5143 61.7386 64.3092 60.1521C67.1573 58.5352 69.9693 56.8727 72.4108 54.6687C75.5173 51.8643 77.8467 48.5811 78.5763 44.3517C78.6979 43.6506 78.772 42.9419 78.8689 42.237H78.8651Z" fill="#38981F"/>
<path d="M69.1484 22.3174C69.4562 22.5511 69.7944 22.7544 70.0642 23.0242C73.8566 26.8052 74.8864 32.3513 72.7242 37.316C71.1073 41.0324 68.4796 43.9375 65.1812 46.1776C62.1887 48.2106 59.048 50.0308 55.9415 51.8909C52.8654 53.7339 49.9109 55.7213 47.4086 58.3224C44.7695 61.0641 42.86 64.2105 42.1057 67.9801C41.9461 68.7743 41.9195 69.597 41.6421 70.4482C41.5585 69.9504 41.4008 69.4507 41.4046 68.9529C41.4293 65.2878 42.4591 61.9115 44.437 58.8316C46.5954 55.4724 49.5157 52.8523 52.6754 50.4849C55.7363 48.1897 58.8808 46.0047 61.9151 43.6734C64.5219 41.6708 66.7677 39.3015 68.3979 36.4078C69.6424 34.2 70.4461 31.8668 70.5468 29.3018C70.6323 27.1643 70.2846 25.137 69.308 23.2256C69.1788 22.9729 69.0838 22.7031 68.9736 22.4428C69.0306 22.401 69.0895 22.3592 69.1465 22.3174H69.1484Z" fill="#38981F"/>
<path d="M83.9363 63.1883C81.6202 64.3245 79.3402 64.7045 76.5624 64.4081C77.6853 64.2105 78.7265 64.0281 79.7696 63.8457C78.2021 63.8723 76.7676 64.1345 74.9873 63.9084C77.615 63.1161 80.4004 62.7722 83.9363 63.1864V63.1883Z" fill="white"/>
<path d="M77.29 71.0087C78.2932 71.6927 79.1197 72.257 79.9462 72.8213C80.007 72.751 80.0678 72.6826 80.1286 72.6123C79.3097 71.8504 78.4908 71.0885 77.5959 70.2563C80.1894 70.2392 82.1673 72.3824 82.2528 75.2286C79.9994 74.651 77.9132 73.948 77.29 71.0087Z" fill="white"/>
<path d="M65.1813 94.5953C65.1718 95.8018 65.1642 96.7936 65.1566 97.7873C65.0654 97.7968 64.9742 97.8082 64.8849 97.8177C64.7272 96.7195 64.5695 95.6194 64.3966 94.4186C62.9146 96.5238 63.5435 99.351 65.8159 101.031C66.6215 98.8646 67.2276 96.7651 65.1813 94.5953Z" fill="white"/>
<path d="M70.0567 74.0639C70.5887 74.9835 70.9896 75.6751 71.3886 76.3648C71.4665 76.3401 71.5444 76.3135 71.6223 76.2888C71.4057 75.5231 71.1891 74.7574 70.9706 73.9841C73.2088 74.9531 73.8187 77.387 72.4621 80.0204C70.9877 78.3921 69.2758 76.9006 70.0567 74.062V74.0639Z" fill="white"/>
<path d="M51.7446 37.2951C52.5198 38.1349 52.6642 38.9994 52.0448 40.0368C51.2126 41.4295 51.0815 42.8811 52.041 44.5531C53.8099 43.1471 55.6586 42.1135 56.5763 40.0178C59.0197 34.4394 56.1317 28.443 51.2544 26.0585C53.1411 27.9775 54.72 30.0789 55.4439 32.7579C48.45 31.0954 44.2814 26.6779 42.3548 19.8227C42.7481 19.8645 43.0882 19.8664 43.4112 19.9424C44.8514 20.2844 46.3068 20.5865 47.7204 21.0197C49.0827 21.4377 50.4469 21.9013 51.7275 22.5169C56.4281 24.7798 58.7062 28.6463 58.7993 33.7877C58.8278 35.3951 58.52 37.0101 58.3566 38.7182C58.5656 38.5453 58.8164 38.4161 58.957 38.209C62.1946 33.4438 63.1009 28.291 61.3928 22.7582C60.9577 21.3503 60.3459 19.9918 59.755 18.639C58.6739 16.169 57.5472 13.7199 56.3597 11.0846C56.411 11.7078 56.3597 12.2379 56.5079 12.7034C57.1292 14.6452 57.7752 16.5794 58.4782 18.4927C59.375 20.9304 60.2452 23.3681 60.5815 26.1155C58.1286 23.503 55.518 21.2211 54.1804 17.9056C53.0936 15.2114 52.5768 12.5077 52.8827 9.557C53.2019 6.4866 54.1747 3.6974 55.5218 0.984199C55.6491 0.729599 55.8315 0.5035 56.1602 0C57.1444 5.3808 60.2756 9.4981 62.3789 14.1436C63.0477 11.5083 63.7849 8.968 65.8578 7.0908C67.4975 5.605 69.3766 4.5087 71.5996 3.4504C71.3621 5.1319 71.1778 6.612 70.9308 8.0807C70.813 8.7799 70.5793 9.4582 70.3912 10.146C69.6502 12.8478 67.6324 14.4495 65.3733 16.0417C64.9211 13.5356 66.1371 11.6128 67.2543 9.3898C66.4829 9.6311 66.2245 10.0586 65.9794 10.4367C64.3587 12.9257 63.3004 15.6066 63.4106 18.6295C63.479 20.5143 63.5132 22.4143 63.7982 24.2706C64.1611 26.6418 63.8267 28.9465 63.5189 31.2683C63.4391 31.8649 63.3099 32.4539 63.1921 33.098C64.2694 32.3114 65.398 29.8623 66.1656 26.733C66.7033 24.5385 66.6672 23.1914 65.93 19.5909C67.3303 21.3142 67.9801 23.1895 68.2309 25.1028C68.5501 27.531 68.381 29.9744 67.5887 32.3665C66.6634 35.1595 64.9914 37.4452 63.0458 39.5561C60.5036 42.313 57.4465 44.4638 54.4217 46.6412C51.5641 48.6989 48.6476 50.6806 46.1263 53.1658C43.9964 55.2653 42.2731 57.6422 40.9431 60.3307C39.7632 62.7152 39.2293 65.2251 39.1837 67.8623C39.178 68.21 39.1837 68.5577 39.0659 68.8883C37.7074 62.6221 39.8677 57.3116 43.6734 52.4685C43.1623 51.6154 42.3339 51.5185 41.5283 51.4178C41.0742 51.3608 40.6087 51.3969 40.1489 51.3912C38.7144 51.3722 37.6257 50.73 36.8467 49.4912C38.1368 50.483 39.5048 51.1195 41.2338 50.616C40.9355 49.7515 40.6486 48.9231 40.2572 47.7869C40.9545 48.8414 41.3326 49.7306 41.9862 50.3101C42.6493 50.8953 43.5841 51.1727 44.4106 51.5907C45.9952 50.1049 47.5817 48.621 49.2442 47.063C47.861 44.9654 45.8204 44.3251 43.4587 44.4448C42.6493 44.4866 41.8513 44.7165 41.0438 44.8381C39.6359 45.0509 38.3705 44.6918 37.2153 43.8064C39.5675 44.6804 41.7278 43.6221 44.1104 43.2364C43.4188 41.8114 42.8507 40.3921 42.0679 39.1001C41.2167 37.6922 39.7537 37.164 38.1748 36.9607C37.7948 36.9113 37.411 36.8923 37.0576 36.5826C38.1064 36.7004 39.1742 36.7346 40.2002 36.955C41.6803 37.2742 42.8146 38.1691 43.377 39.5846C44.1617 41.5625 45.4822 42.8754 47.4886 43.6278C48.4196 43.9774 49.2176 44.6823 50.0821 45.2162C50.3253 45.3663 50.5932 45.4803 50.8098 45.5905C51.3779 45.1573 51.0283 44.7887 50.882 44.4448C50.3044 43.0863 50.2816 41.7373 51.0948 40.4871C51.7484 39.482 51.927 38.4275 51.7674 37.278L51.7408 37.3008L51.7446 37.2951Z" fill="white"/>
<path d="M52.2308 16.91C51.1611 16.0474 50.3422 15.3881 49.5309 14.7326C49.6924 15.8498 49.7133 15.8726 52.4379 18.0082C48.6208 17.9968 46.1052 13.9935 46.7265 10.146C49.1509 11.7952 52.0237 12.9865 52.2327 16.9119L52.2308 16.91Z" fill="#CF9B36"/>
<path d="M31.8723 55.1969C33.683 52.4134 35.9972 51.4368 38.2107 52.5768C37.407 52.9131 36.6888 53.2152 35.9687 53.5154C35.982 53.5724 35.9972 53.6313 36.0105 53.6883C37.0004 53.5819 37.9903 53.4736 39.1208 53.352C37.6635 55.708 34.6444 56.1963 31.8723 55.195V55.1969Z" fill="#CF9B36"/>
<path d="M45.5601 38.6612C44.4847 36.3812 45.1763 34.6218 45.9078 32.8301C47.8762 34.1525 48.2524 36.6472 46.664 38.3933C46.6032 37.6219 46.5519 36.9569 46.4778 36.0088C46.1472 36.9664 45.9097 37.6523 45.5601 38.6612Z" fill="#CF9B36"/>
</svg>
